<svg width="287" height="418" viewBox="0 0 287 418" fill="none" xmlns="http://www.w3.org/2000/svg">
<path fill-rule="evenodd" clip-rule="evenodd" d="M248.366 229.38C245.317 217.553 242.513 212.539 237.098 208.428C232.032 204.584 224.638 201.354 213.849 198.995C202.611 197.03 202.293 191.189 199.475 181.799C198.653 178.977 194.58 178.226 192.822 180.26C192.574 179.993 192.315 179.748 192.048 179.526C192.287 178.18 190.328 174.322 190.393 173.034C191.076 159.594 186.681 152.844 175.711 150.335C173.325 149.789 157.12 149.468 154.794 150.111C144.624 152.924 134.613 161.853 136.145 172.609C132.953 176.781 129.829 179.328 124.904 180.672C117.234 181.646 121.087 290.324 134.407 355.433C140.122 383.369 276.776 335.821 270.601 321.83C271.477 319.265 269.881 316.447 270.601 313.798C271.122 311.882 272.457 311.089 273.129 309.191C274.074 306.521 273.046 302.938 271.982 300.213C271.546 298.854 272.785 297.392 273.129 296.006C274.762 289.469 271.023 290.046 268.327 285.675C268.367 285.662 269.068 282.542 269.065 282.558C269.477 280.33 268.443 277.477 267.541 275.618C266.932 274.361 265.626 273.574 264.328 273.719C265.635 269.282 267.288 265.59 269.065 261.315C272.208 253.78 275.196 245.897 279.71 239.076C281.558 236.284 280.065 233.715 277.074 233.524C267.394 232.909 257.819 231.515 248.366 229.38Z" fill="#FFB37E"/>
<path fill-rule="evenodd" clip-rule="evenodd" d="M233.254 230.293L211.156 267.7C211.156 267.7 216.398 268.223 218.52 269.243C220.641 270.262 230.382 282.649 230.382 282.649L231.93 289.47L228.262 294.969L229.693 298.421C229.693 298.421 230.713 296.082 233.254 294.266C235.794 292.45 241.397 289.47 241.397 289.47C241.397 289.47 239.535 288.473 239.535 287.303C239.535 286.134 237.895 281.143 241.397 279.258C244.899 277.373 262.995 272.962 262.995 272.962L281.334 234.266L233.254 230.293Z" fill="#39C481"/>
<path fill-rule="evenodd" clip-rule="evenodd" d="M134.678 180.926L204.844 193.244L237.098 208.428L242.364 212.486L211.156 267.7L162.97 276.494L150.693 308.39L153.199 344.344L231.589 334.995L265.403 330.976L273.352 363.074L271.916 376.279L269.827 382.975L186.001 405.613C186.001 405.613 143.315 401.474 135.748 401.474C128.182 401.474 72.7036 406.985 72.7036 406.985L59.8675 405.613C59.8675 405.613 31.4676 375.672 27.0628 365.017C22.658 354.361 13.133 289.586 13.133 289.586L14.1818 279.634L38.7186 216.472C38.7186 216.472 41.9952 213.496 46.1261 208.428C50.257 203.361 134.678 180.926 134.678 180.926Z" fill="#F5F5F5"/>
<path fill-rule="evenodd" clip-rule="evenodd" d="M261.671 272.164C255.33 272.487 248.982 273.995 243.246 276.727C240.899 277.847 238.772 279.463 238.15 282.122C237.835 283.48 237.912 284.883 238.079 286.255C238.206 287.294 238.237 288.62 239.14 289.323C239.293 289.442 239.458 289.533 239.629 289.6C237.513 290.555 235.498 291.703 233.707 292.885C232.071 293.966 230.389 295.632 229.633 297.511C229.57 297.297 229.507 297.098 229.444 296.909C228.157 293.102 226.174 289.985 223.051 287.889C222.696 286.596 218.89 281.031 215.354 281.241C211.482 281.468 208.368 281.751 204.866 283.532C203.59 283.504 202.317 283.522 201.058 283.578C200.841 283.585 200.852 283.879 201.058 283.903C202.079 284.033 203.1 284.176 204.122 284.344C206.549 284.733 208.969 285.226 211.337 285.838C214.177 286.573 217.115 287.311 219.77 288.595C224.918 291.09 228.105 297.613 227.451 303.287C227.342 304.218 226.982 307.031 225.691 306.741C224.6 306.496 224.166 304.218 223.785 303.375C222.764 301.136 220.924 299.673 218.717 298.683C216.125 297.518 213.352 296.73 210.665 295.814C209.144 295.293 207.623 294.771 206.098 294.253C204.538 293.718 203.055 292.98 201.394 293.354C200.39 293.581 200.274 294.778 200.838 295.464C201.694 296.51 202.968 296.818 204.202 297.248C205.832 297.815 207.458 298.382 209.085 298.949C211.599 299.824 214.233 300.562 216.685 301.632L216.608 301.807C216.408 301.751 216.174 301.951 216.213 302.196C216.58 304.46 217.091 307.077 216.524 309.345C216.077 311.143 214.499 313.134 212.45 312.605C212.771 312.311 212.89 311.804 212.673 311.335C211.862 309.6 201.229 302.749 200.281 305.293C200.25 305.383 200.348 305.45 200.425 305.436C201.233 305.268 202.586 306.646 203.233 307.084C204.167 307.714 205.115 308.329 206.038 308.977C207.049 309.684 208.036 310.426 208.997 311.192C209.753 311.794 210.323 312.42 211.19 312.725C210.736 312.941 210.375 313.343 210.222 313.858C209.83 315.198 209.074 316.335 207.763 316.927C206.388 317.542 204.839 317.154 203.391 317.305C201.418 317.504 199.697 318.442 198.26 319.782C195.241 322.602 193.727 327.571 189.505 328.903C186.984 329.698 184.186 329.197 181.632 328.837C178.782 328.434 176.005 328.116 173.133 328.536C170.384 328.939 167.785 329.89 165.274 331.052C162.92 332.14 160.318 333.372 158.23 334.995C157.8 333.669 157.366 332.357 157.037 331.003C156.261 327.801 155.841 324.54 155.739 321.251C155.645 318.12 155.82 314.974 156.089 311.856C156.222 310.299 156.432 308.749 156.565 307.192C156.6 306.8 156.67 306.381 156.723 305.961C160.451 303.76 164.368 302.074 168.317 300.338C168.328 300.335 168.338 300.327 168.349 300.324C168.471 300.268 168.59 300.216 168.712 300.163C168.709 300.156 168.705 300.149 168.698 300.142C169.149 299.866 169.464 299.498 169.653 299.085C175.344 295.31 180.1 290.156 183.647 284.145C185.133 281.625 186.564 279.012 188.509 276.804C190.579 274.449 193.038 273.05 196.081 272.322C199.638 271.468 203.303 270.957 206.948 270.667C208.938 270.51 211.162 270.264 213.331 270.275C214.842 270.285 216.321 270.415 217.678 270.789C219.689 271.342 220.865 272.871 222.127 274.418C223.334 275.902 224.534 277.389 225.66 278.935C226.726 280.401 227.734 281.916 228.608 283.504C229.133 284.456 229.619 285.436 230.028 286.447C230.172 286.804 230.361 287.21 230.448 287.581C230.535 287.955 230.375 288.351 230.794 288.351C229.063 288.375 227.912 292.694 229.633 292.592C232.053 292.451 233.269 289.55 232.795 286.975C231.949 282.382 227.381 276.835 226.478 275.66C224.481 273.064 222.421 269.677 219.224 268.469C219.179 268.452 219.13 268.435 219.084 268.42C220.015 267.539 220.749 266.482 221.452 265.408C222.176 264.302 223.04 263.036 223.278 261.723C223.428 260.888 222.39 260.411 221.896 261.143C221.179 262.21 220.833 263.56 220.298 264.733C219.752 265.922 219.088 267.045 218.563 268.246C217.301 267.857 215.937 267.679 214.548 267.62C216.3 265.247 219.294 260.67 219.655 260.082C221.312 257.36 222.89 254.554 224.397 251.744C226.027 248.7 227.423 245.53 228.983 242.451C229.867 240.706 230.759 238.945 231.742 237.252C232.081 236.671 232.445 236.09 232.858 235.562C232.938 235.457 233.04 235.37 233.134 235.271C233.243 235.212 233.355 235.145 233.418 235.111C233.984 234.785 234.183 234.03 234.582 233.55C235.219 232.777 235.967 232.686 236.926 232.675C238.968 232.654 241.018 232.735 243.057 232.791C246.054 232.875 249.048 232.994 252.042 233.151C252.948 233.2 253.85 233.249 254.756 233.305C259.111 233.564 263.462 233.903 267.802 234.32C271.643 234.687 275.483 235.286 279.327 235.573C274.122 247.941 268.351 260.086 261.818 271.808C261.751 271.926 261.702 272.045 261.671 272.164ZM232.795 304.029C231.956 304.414 231.141 304.893 230.382 305.439C230.508 304.589 230.539 303.693 230.504 302.794C231.13 303.466 231.931 303.851 232.795 304.029ZM268.628 282.752C268.569 282.759 268.513 282.79 268.485 282.85C267.324 285.247 267.809 287.923 269.705 289.802C270.699 290.782 272.864 291.888 272.793 293.497C272.734 294.799 271.318 295.891 270.713 296.965C270.15 297.965 269.94 299.064 270.391 300.149C270.968 301.538 272.58 302.091 273.133 303.456C273.833 305.187 272.696 307.276 271.898 308.784C271.157 310.18 270.198 311.576 269.562 313.053C265.298 315.261 255.624 319.27 254.459 319.495C253.039 319.771 251.616 320.033 250.189 320.279C247.45 320.754 244.705 321.195 241.952 321.583C240.385 321.804 238.815 322.021 237.244 322.192C235.873 322.339 234.327 322.539 233.222 321.507C230.994 319.421 232.243 315.926 233.652 313.819C233.68 313.777 233.68 313.739 233.67 313.704C234.999 313.392 236.324 313.028 237.647 312.773C240.189 312.283 242.75 311.871 245.313 311.503C250.581 310.751 255.883 310.254 261.178 309.754C262.49 309.627 262.504 307.563 261.178 307.686C253.571 308.382 245.925 309.043 238.42 310.509C236.538 310.873 234.67 311.286 232.813 311.751C231.935 311.969 230.994 312.308 230.074 312.318C230.018 312.318 229.962 312.318 229.906 312.315C228.105 312.259 227.843 310.716 228.833 309.432C228.955 309.274 229.081 309.117 229.21 308.966C230.959 306.881 233.138 305.488 235.383 304.047C237.898 303.704 240.406 302.941 242.868 302.381C248.947 300.995 255.026 299.61 261.108 298.228C262.301 297.955 261.794 296.121 260.601 296.391C255.984 297.437 251.368 298.483 246.75 299.529L239.993 301.062C238.643 301.366 236.957 301.979 235.369 302.199C234.586 302.308 233.827 302.322 233.142 302.161C230.928 301.636 230.816 298.868 231.771 297.224C232.841 295.377 234.862 294.222 236.657 293.175C239.766 291.359 243.075 290.054 246.307 288.55C246.88 288.424 247.454 288.298 248.027 288.172C251.364 287.437 255.176 287.077 258.317 285.73C259.258 285.331 258.744 283.847 257.814 283.868C255.376 283.921 252.826 284.788 250.444 285.303C247.866 285.863 245.285 286.419 242.708 286.975C242.449 287.031 240.917 287.521 240.686 287.413C240.539 287.343 240.487 286.832 240.438 286.496C240.28 285.39 240.165 284.229 240.336 283.119C240.714 280.632 242.788 279.463 244.887 278.508C249.559 276.384 254.683 275.055 259.783 274.522C260.958 274.4 262.133 274.323 263.315 274.285C264.703 274.243 265.848 273.998 266.551 275.366C267.656 277.521 268.264 280.293 268.628 282.752ZM262.138 360.899C261.12 357.376 261.397 353.615 260.7 350.022C260.34 348.168 259.848 346.329 259.312 344.52C258.879 343.058 258.157 341.503 258.075 339.977C258.07 339.875 258.19 339.817 258.272 339.864C259.709 340.687 260.812 342.466 261.631 343.862C262.612 345.533 263.361 347.282 263.965 349.121C265.169 352.786 266.157 357.206 264.604 360.899C264.142 361.999 262.519 362.219 262.138 360.899ZM222.403 387.567C220.886 386.508 219.78 385.027 218.493 383.72C217.228 382.435 219.206 380.456 220.472 381.741C221.57 382.856 222.523 384.248 223.815 385.15C224.437 385.583 224.724 386.368 224.317 387.065C223.957 387.68 223.023 388 222.403 387.567ZM213.941 346.858C216.711 345.66 219.435 344.355 222.334 343.492C224.066 342.976 224.8 345.678 223.078 346.191C220.408 346.986 217.904 348.171 215.354 349.274C213.716 349.983 212.293 347.57 213.941 346.858ZM184.691 346.019C184.014 344.348 186.722 343.627 187.389 345.275C188.158 347.173 189.039 349.021 189.807 350.918C190.484 352.59 187.776 353.311 187.109 351.662C186.34 349.765 185.459 347.917 184.691 346.019ZM155.821 379.406C155.37 380.008 154.617 380.334 153.907 379.908C153.311 379.552 152.948 378.603 153.405 377.993C154.738 376.215 156.089 374.458 157.652 372.873C158.92 371.588 160.897 373.569 159.631 374.852C158.235 376.268 157.012 377.818 155.821 379.406ZM151.693 192.075C152.978 192.953 154.103 194.019 155.2 195.116C156.476 196.391 154.497 198.37 153.221 197.095C152.297 196.17 151.364 195.232 150.281 194.492C149.655 194.065 149.374 193.269 149.779 192.577C150.142 191.957 151.069 191.649 151.693 192.075ZM193.696 237.12C192.97 238.574 192.316 240 192.275 241.653C192.231 243.454 189.433 243.455 189.477 241.653C189.531 239.49 190.328 237.614 191.28 235.707C192.085 234.093 194.498 235.512 193.696 237.12ZM209.106 200.943C210.61 199.94 212.01 202.366 210.519 203.36C209.31 204.166 208.101 204.973 206.892 205.779C205.388 206.781 203.989 204.356 205.48 203.362C206.688 202.555 207.897 201.749 209.106 200.943ZM142.262 264.195C142.005 265.973 139.309 265.212 139.564 263.451C139.957 260.728 140.437 258.041 141.176 255.389C141.659 253.653 144.357 254.395 143.874 256.133C143.135 258.785 142.655 261.472 142.262 264.195ZM132.452 296.259C130.652 296.221 130.651 293.422 132.452 293.46C134.082 293.495 135.685 293.924 137.257 294.316C139.005 294.753 138.26 297.452 136.513 297.015C135.184 296.683 133.83 296.288 132.452 296.259ZM128.831 360.849C128.212 361.151 127.577 361.422 126.952 361.708C125.7 362.281 124.448 362.854 123.196 363.429C120.589 364.627 117.984 365.828 115.38 367.033C110.169 369.446 104.917 371.775 99.6933 374.162C94.3661 376.596 89.0529 379.063 83.7464 381.542C81.2463 382.71 78.7274 383.835 76.2133 384.972C74.0637 385.944 71.4066 387.643 69.0468 387.803C68.9254 387.812 68.8848 387.658 68.9541 387.579C69.8456 386.565 71.2677 385.975 72.4394 385.316C73.6363 384.642 74.8555 384.008 76.0692 383.366C78.5994 382.024 81.1327 380.694 83.6873 379.4C88.7973 376.813 93.917 374.245 99.0378 371.68C104.26 369.064 109.476 366.43 114.745 363.907C117.225 362.719 119.708 361.535 122.193 360.354C123.538 359.714 124.885 359.075 126.232 358.438C126.813 358.163 127.389 357.866 127.983 357.619C128.774 357.292 129.374 357.359 130.189 357.157C131.518 356.829 132.093 358.52 131.073 359.256C130.233 359.862 129.791 360.381 128.831 360.849ZM110.152 389.552C109.865 388.854 110.466 388.005 111.129 387.83C111.923 387.621 112.56 388.104 112.85 388.808C113.617 390.674 114.71 392.387 116.116 393.833C117.373 395.126 115.396 397.106 114.138 395.813C112.375 394 111.109 391.881 110.152 389.552ZM96.4088 344.621C95.1333 343.346 97.1122 341.367 98.3874 342.642L102.014 346.27C103.289 347.546 101.31 349.525 100.035 348.249L96.4088 344.621ZM59.205 338.707C56.5979 339.472 53.5571 340.175 51.7796 342.4C51.6929 342.509 51.547 342.37 51.5991 342.261C53.8747 337.542 60.4004 335.886 64.9186 334.233C68.1144 333.063 71.3933 332.094 74.7 331.227C74.3694 327.454 75.2809 323.409 75.5978 319.654C75.936 315.645 76.2113 311.625 76.3526 307.604C76.497 303.501 76.532 299.371 76.397 295.267C76.2627 291.179 75.7321 287.14 75.4999 283.066C75.4775 282.672 76.0259 282.653 76.1441 282.978C77.5173 286.76 78.1038 290.948 78.5508 294.935C79.0111 299.043 79.1639 303.138 79.1052 307.27C79.0443 311.517 78.7974 315.755 78.4585 319.989C78.2979 321.996 78.1115 324 77.9356 326.006C77.8013 327.536 77.739 329.054 77.427 330.536C79.4213 330.047 81.4202 329.583 83.4128 329.133C89.7665 327.699 96.1468 326.368 102.474 324.817C105.58 324.056 108.641 323.144 111.733 322.334C114.644 321.572 117.717 320.647 120.706 320.307C121.773 320.186 121.909 321.645 121.203 322.141C118.773 323.847 115.547 325.035 112.741 325.991C109.924 326.949 106.997 327.639 104.11 328.349C98.0907 329.83 92.014 331.041 85.9464 332.302C79.8872 333.562 73.8165 334.813 67.8255 336.367C64.9403 337.116 62.0649 337.867 59.205 338.707ZM44.918 263.822C43.3601 264.737 41.9538 262.316 43.506 261.405C45.537 260.212 47.7017 259.316 49.8838 258.442C51.5585 257.772 52.279 260.48 50.6278 261.142C48.6667 261.927 46.743 262.75 44.918 263.822ZM39.278 367.816C37.716 368.722 36.3086 366.302 37.866 365.399C40.0534 364.131 42.4489 363.284 44.7157 362.174C46.3284 361.384 47.7449 363.8 46.1277 364.591C43.8612 365.701 41.4654 366.547 39.278 367.816ZM36.741 308.784C38.2512 310.219 40.2669 310.895 42.1675 311.649C43.8246 312.306 43.0978 315.012 41.4236 314.348C39.0557 313.409 36.6438 312.551 34.7624 310.763C33.4536 309.52 35.4357 307.544 36.741 308.784ZM53.4493 228.614C55.1096 229.266 54.3825 231.972 52.7054 231.314C50.8454 230.584 48.9245 230.028 47.0645 229.298C45.4045 228.647 46.1313 225.941 47.8084 226.599C49.6684 227.329 51.5893 227.884 53.4493 228.614ZM82.9243 196.771C84.6885 196.474 85.4398 199.171 83.6683 199.47C81.4704 199.842 79.3061 200.276 77.2215 201.083C75.5381 201.734 74.8159 199.027 76.4776 198.384C78.5625 197.577 80.7268 197.142 82.9243 196.771ZM92.6634 274.302C91.0458 273.506 92.4651 271.093 94.0754 271.885C95.7724 272.719 97.5307 273.365 99.3823 273.759C101.145 274.135 100.394 276.833 98.6384 276.458C96.5545 276.014 94.5717 275.24 92.6634 274.302ZM101.861 230.63C103.603 230.152 104.34 232.853 102.605 233.329C99.5537 234.165 96.4118 234.6 93.3378 235.344C91.5859 235.769 90.8447 233.069 92.5939 232.645C95.6679 231.901 98.8101 231.467 101.861 230.63ZM140.882 216.925C142.653 217.253 141.899 219.95 140.139 219.624C138.265 219.277 136.366 219.272 134.467 219.271C132.663 219.27 132.666 216.471 134.467 216.472C136.625 216.473 138.755 216.531 140.882 216.925ZM268.145 231.549C263.574 231.111 258.996 230.761 254.41 230.499C254.197 230.488 253.987 230.475 253.773 230.464C253.749 230.415 253.718 230.369 253.686 230.32C252.189 228.123 251.088 225.926 250.133 223.441C249.22 221.076 248.335 218.638 246.929 216.503C245.325 214.071 243.16 212.169 240.788 210.52C239.348 211.488 238.013 212.622 236.791 213.823C235.504 215.087 233.526 213.108 234.812 211.844C235.898 210.776 237.057 209.789 238.282 208.898C236.867 208.038 235.424 207.23 234.016 206.426C228.738 203.414 223.334 200.628 217.819 198.081C215.255 196.895 212.66 195.842 210.047 194.774C208.641 194.201 207.252 193.462 205.846 192.798C205.948 191.804 205.651 190.691 204.888 190.037C204.325 189.558 203.888 189.379 203.216 189.04C203.066 188.987 202.975 188.956 202.933 188.938C202.964 188.945 203.055 188.973 203.205 189.022C203.562 189.187 203.59 189.138 203.29 188.879C203.272 188.312 202.156 187.116 201.901 186.531C201.013 184.526 200.736 182.406 199.425 180.579C197.617 178.063 194.581 177.112 191.751 177.965C191.457 174.939 191.38 171.78 190.24 169.078C190.209 169.005 190.107 168.973 190.062 169.054C188.873 171.08 188.771 173.336 188.68 175.674C188.593 177.868 188.676 180.11 188.964 182.29C188.782 182.43 188.596 182.563 188.404 182.693C187.502 183.287 186.529 183.746 185.508 184.086C183.563 184.729 181.524 185.009 179.485 185.107C174.221 185.359 168.796 184.827 163.62 183.924C158.384 183.011 150.357 181.639 145.698 179.019C142.624 177.291 139.788 175.18 136.912 173.137C137.955 169.778 138.221 166.167 137.171 163.329C137.045 162.99 136.514 162.927 136.412 163.329C135.755 166.038 135.562 168.76 134.688 171.436C134.674 171.475 134.66 171.517 134.646 171.555C134.373 171.37 134.101 171.188 133.828 171.006C133.198 170.59 132.341 170.901 131.963 171.496C125.923 181.017 116.357 181.562 106.312 183.263C95.319 185.124 84.2705 187.133 73.7008 190.775C63.5928 194.26 53.9325 199.334 46.2797 206.913C44.5474 208.629 42.9273 210.457 41.3982 212.365C42.8777 212.552 44.3449 212.842 45.7932 213.298C47.5081 213.836 46.7712 216.538 45.0493 215.997C43.1879 215.412 41.3058 215.122 39.4046 214.978C34.2047 222.094 30.1503 230.163 26.6443 238.105C19.9195 253.333 15.5423 269.55 13.5281 286.061C14.634 285.398 15.7599 284.766 16.9137 284.179C18.517 283.363 19.9311 285.779 18.326 286.596C16.5437 287.503 14.8124 288.502 13.1349 289.586C12.4022 296.813 12.1182 304.087 12.2903 311.349C12.6995 328.662 15.0359 346.482 20.3207 363C22.9124 371.107 26.347 379.148 31.464 385.999C33.7794 389.103 36.4096 391.902 39.5084 394.236C41.0089 395.369 42.5968 396.381 44.2721 397.234C46.4301 398.34 49.2422 398.704 51.1029 400.268C51.715 400.782 52.1872 401.461 52.5439 402.227C52.3376 403.683 52.3131 405.142 52.7118 406.597C52.8377 407.053 53.1805 407.423 53.6037 407.602C53.6107 407.727 53.6107 407.85 53.6107 407.969C53.6107 408.025 53.6946 408.039 53.7051 407.983C53.7226 407.874 53.7401 407.766 53.7576 407.654C53.894 407.699 54.0374 407.721 54.1843 407.721C59.4971 407.741 64.8166 407.611 70.1364 407.431C69.7251 406.17 69.2795 404.92 68.8517 403.66C68.2708 401.947 70.9741 401.219 71.5498 402.916C72.0503 404.389 72.5735 405.85 73.039 407.329C78.739 407.117 84.4373 406.863 90.1254 406.675C102.224 406.272 114.318 406.139 126.419 405.884C145.212 405.485 164.142 404.669 182.964 405.468C183.615 404.085 184.343 402.735 185.034 401.372C185.849 399.763 188.262 401.181 187.45 402.785C186.97 403.732 186.473 404.667 186 405.613C189.812 405.811 193.62 406.072 197.42 406.43C203.905 407.038 210.327 408.119 216.804 408.792C223.39 409.477 229.833 409.355 236.366 408.267C237.541 408.071 238.234 407.36 238.521 406.478C238.531 406.475 238.538 406.468 238.545 406.457C238.881 406.065 239.196 405.74 239.521 405.457C239.909 405.205 240.329 404.991 240.822 404.802C241.742 404.452 242.7 404.239 243.673 404.096C244.743 403.935 245.827 403.921 246.897 403.788C247.799 403.673 248.681 403.501 249.562 403.291C251.147 402.913 252.651 402.42 254.148 401.765C255.453 401.195 256.631 400.377 257.743 399.484C260.045 397.801 262.038 395.653 263.78 393.42C264.795 392.115 265.749 390.761 266.617 389.351C268.128 386.909 269.415 384.372 270.716 381.814C271.188 381.056 271.619 380.28 272.013 379.488C269.47 378.738 266.903 378.127 264.207 378.084C262.405 378.055 262.406 375.256 264.207 375.285C267.299 375.334 270.223 376.057 273.129 376.917C273.27 376.541 273.406 376.162 273.532 375.779C273.878 374.978 274.165 374.155 274.402 373.322C274.542 372.944 274.682 372.567 274.822 372.189C275.137 370.88 275.452 369.568 275.77 368.256C276.403 366.156 276.903 364.026 277.27 361.867C277.578 360.446 277.816 359.015 277.977 357.567C278.467 354.057 278.865 350.555 278.893 347.007C278.851 344.82 278.711 342.637 278.474 340.464C278.372 338.987 278.201 337.518 277.97 336.059C277.669 333.889 277.372 331.741 276.872 329.599C276.497 328.151 276.123 326.702 275.749 325.254C274.815 322.235 273.713 319.274 272.443 316.38C272.374 316.199 272.02 315.8 271.807 315.796C271.646 315.793 271.422 315.94 271.496 316.136C271.503 316.153 271.51 316.174 271.517 316.191C271.444 316.027 271.374 315.859 271.3 315.695C271.237 315.541 270.992 315.233 270.803 315.237C270.793 315.237 270.782 315.237 270.768 315.24C270.817 315.205 270.863 315.159 270.908 315.107C272.164 313.62 272.979 311.664 273.878 309.942C274.623 308.522 275.326 307.024 275.529 305.418C275.707 304.008 275.466 302.619 274.581 301.478C273.574 300.18 271.678 299.571 272.731 297.696C273.927 295.562 275.686 293.711 273.934 291.286C273.042 290.051 271.629 289.372 270.58 288.298C269.373 287.056 268.799 285.394 268.831 283.697C268.904 283.739 269.002 283.718 269.037 283.613C270.051 280.548 269.317 277.182 268.278 274.197C267.712 272.577 266.512 272.133 265.116 272.053C271.16 260.244 276.815 248.245 281.856 235.971C282.024 235.569 282.188 235.167 282.352 234.764C282.597 234.162 282.08 233.361 281.482 233.228C277.124 232.273 272.584 231.968 268.145 231.549Z" fill="#303030"/>
<path fill-rule="evenodd" clip-rule="evenodd" d="M220.141 78.8378C224.112 75.9784 218.19 66.5708 216.179 63.7717C214.429 60.1202 212.679 56.4683 210.928 52.8165C211.141 49.8217 208.224 47.1573 205.342 48.0684C202.834 46.2654 198.634 47.1286 197.359 49.9515C169.631 37.8444 121.652 42.8812 119.171 80.2402C113.807 90.877 108.491 101.605 103.732 112.529C97.1293 112.884 93.9288 120.926 97.8598 126.123C98.383 134.562 103.72 135.23 110.845 134.855C113.706 135.61 116.672 136.019 118.818 138.235C120.449 139.905 121.557 142.024 122.627 144.08C127.564 153.564 133.836 161.768 142.338 168.329C155.56 178.249 173.459 185.371 189.946 180.542C225.391 166.588 232.352 110.819 220.141 78.8378Z" fill="#FFB37E"/>
<path fill-rule="evenodd" clip-rule="evenodd" d="M146.168 24.4901C169.326 19.0982 195.342 26.334 211.414 44.1612C212.545 45.4138 212.423 47.0443 211.428 48.101C211.892 48.4789 212.346 48.8673 212.807 49.2557C213.288 49.665 213.219 50.4873 212.807 50.9037C212.398 51.313 211.55 51.397 211.163 50.9037L210.589 50.1801C210.304 49.8186 210.022 49.4558 209.749 49.0842C209.418 49.2067 209.093 49.3361 208.769 49.4621C213.679 52.7336 217.773 57.0793 220.579 62.3102C223.616 67.968 225.553 74.0072 226.813 80.2913C229.059 91.5012 229.385 102.998 229.084 114.397L229.068 115.008C228.68 128.748 227.343 142.716 221.564 155.351C216.929 165.477 208.692 174.787 198.364 179.221C192.417 181.771 186.023 182.86 179.563 182.405C176.156 182.167 172.76 181.628 169.444 180.806L168.648 180.607C165.627 179.849 162.495 178.97 159.916 177.237C157.271 175.456 159.054 171.918 161.972 172.349C165.487 172.87 168.834 174.34 172.32 175.102C175.73 175.851 179.182 176.243 182.676 176.142C188.857 175.967 194.487 174.063 199.596 170.606C219.131 157.384 221.504 130.799 222.014 109.315C222.262 98.8183 221.878 88.185 219.469 77.9296C217.155 68.0695 213.173 58.3599 207.536 49.938C206.294 50.4033 205.051 50.7917 203.729 50.9142C201.371 52.3351 198.567 52.3727 195.84 52.3733L195.46 52.3732C192.623 52.3697 189.785 52.2018 186.962 51.9464C176.969 51.0576 166.687 48.8043 156.642 50.2389L156.232 50.299C152.096 50.9226 146.971 52.2312 143.935 55.2144C140.654 58.4334 142.853 64.5251 145.449 66.46C147.128 67.7126 147.652 70.5328 145.449 71.6699C141.101 73.9198 130.574 72.6706 129.391 73.9163C127.971 75.4052 128.07 77.6744 128.029 79.6067L128.026 79.735C127.88 85.2354 128.016 90.7182 128.48 96.2046C128.927 101.509 129.942 106.824 130.169 112.142C130.246 113.895 128.134 114.427 126.979 113.465C126.752 113.276 126.518 113.097 126.285 112.937C124.187 111.446 121.803 110.816 119.245 110.417C119.111 110.396 119.006 110.329 118.93 110.24L118.899 110.2L118.627 110.424C119.158 111.086 119.611 111.834 119.971 112.674C120.044 112.842 119.887 113.056 119.702 112.944C116.163 110.834 112.31 109.938 108.237 110.792C104.572 111.558 101.256 113.888 100.181 117.618C99.1937 121.051 99.9197 125.008 102.136 127.832C105.413 132.016 110.736 131.638 115.51 131.831C116.446 131.869 117.489 132.324 117.926 133.22C118.439 134.277 118.404 134.997 117.926 136.051C117.859 136.201 117.772 136.338 117.671 136.46C118.075 136.795 118.458 137.162 118.83 137.536L120.077 138.795C120.93 139.658 121.778 140.529 122.595 141.421C124.997 144.046 127.255 146.838 129.38 149.69L129.577 149.956C132.066 153.37 134.649 158.301 138.965 159.378C140.444 159.749 141.82 160.48 142.259 162.086C142.699 163.692 141.662 165.249 140.27 165.921C137.855 167.086 134.79 165.701 132.797 164.231C128.5 161.057 125.692 155.88 123.052 151.321L122.329 150.076C120.97 147.724 119.641 145.344 118.508 142.874C117.863 141.463 117.168 140.064 116.568 138.633C116.393 138.216 116.219 137.793 116.083 137.359C115.891 137.401 115.695 137.429 115.51 137.44C109.748 137.818 103.113 136.901 98.9494 132.517C93.208 126.474 92.5344 115.669 99.0576 109.903C99.7451 109.294 100.52 108.759 101.358 108.3C100.192 106.324 99.4206 104.032 98.8517 101.88C98.021 98.7378 97.5568 95.5363 97.3264 92.2962C96.8622 85.6867 97.6336 78.9582 99.2181 72.5377C104.963 49.2662 122.602 29.9764 146.168 24.4901ZM104.436 121.057C103.295 114.427 116.529 119.33 119.415 119.792L119.499 119.805C122.81 120.266 120.965 126.086 117.707 124.352L117.608 124.297C115.845 123.285 113.907 122.559 112.058 121.702L111.664 121.516C110.195 120.809 105.34 117.635 104.813 121.057C104.785 121.246 104.467 121.243 104.436 121.057Z" fill="#303030"/>
<path fill-rule="evenodd" clip-rule="evenodd" d="M194.13 149.111C191.553 149.857 188.788 149.924 186.162 149.153C183.779 148.454 181.333 146.915 179.58 144.878C178.023 143.069 177.014 140.871 177.054 138.524C177.058 138.256 177.154 138.032 177.301 137.858C177.46 137.671 177.682 137.543 177.919 137.487C178.163 137.43 178.421 137.45 178.641 137.55C178.84 137.641 179.01 137.794 179.117 138.019C179.386 138.373 179.655 138.722 179.924 139.061C182.091 141.737 184.189 143.737 187.446 144.454C189.214 144.843 190.979 144.671 192.599 144.077C194.332 143.441 195.9 142.323 197.128 140.893C197.683 140.246 198.338 139.982 198.979 139.978C199.705 139.973 200.423 140.311 200.963 140.85C201.495 141.38 201.851 142.101 201.883 142.855C201.911 143.516 201.696 144.207 201.122 144.824C199.231 146.855 196.781 148.343 194.13 149.111ZM194.051 115.594C196.692 117.2 200.717 120.945 197.875 124.926C194.531 128.437 189.716 124.412 187.343 122.591C185.143 121.181 182.67 124.809 184.712 126.457C201.858 139.156 208.817 116.014 195.387 113.706C193.908 113.451 193.359 115.097 194.051 115.594ZM169.345 108.527C168.496 107.984 167.497 107.797 166.391 108.301C165.526 108.695 164.009 110.006 162.953 111.73C162.231 112.91 161.719 114.294 161.826 115.735C161.85 116.07 161.727 116.317 161.532 116.499C161.378 116.643 161.155 116.749 160.894 116.782C160.672 116.81 160.424 116.785 160.222 116.722C159.838 116.602 159.634 116.353 159.558 116.149C158.819 114.186 159.137 111.994 159.965 110.017C161.083 107.349 163.114 105.115 164.444 104.394C166.72 103.161 169.405 103.104 171.684 104.361C173.625 105.43 174.838 107.157 176.044 108.917C176.301 109.291 176.555 109.662 176.819 110.027C177.346 110.758 177.398 111.483 177.194 112.105C176.968 112.794 176.391 113.375 175.67 113.679C175.003 113.96 174.229 114 173.545 113.711C172.966 113.467 172.435 112.991 172.1 112.184C171.534 110.824 170.591 109.325 169.345 108.527ZM212.457 111.552C211.875 111.855 211.421 111.946 210.776 111.753C210.419 111.646 210.067 111.44 209.791 111.164C209.517 110.891 209.32 110.55 209.243 110.173C209.054 109.241 208.545 108.369 207.819 107.801C207.198 107.315 206.415 107.058 205.546 107.203C204.609 107.359 203.716 107.961 203.1 108.67C202.895 108.907 202.734 109.177 202.572 109.445C202.269 109.945 201.974 110.41 201.556 110.778C201.397 110.918 201.159 111.015 200.927 111.015C200.833 111.015 200.738 110.999 200.647 110.971C199.714 110.034 199.535 109.323 199.565 108.619C199.596 107.879 199.888 107.131 200.358 106.432C201.463 104.794 203.56 103.451 204.975 103.147C206.913 102.73 208.837 103.23 210.38 104.313C211.968 105.427 213.144 107.157 213.511 109.106C213.599 109.576 213.562 110.082 213.383 110.522C213.208 110.951 212.904 111.319 212.457 111.552ZM173.618 91.0611C172.455 92.1946 171.079 92.3702 169.686 92.5263C168.912 92.6139 168.295 92.6845 167.687 92.8217C166.016 93.1989 164.365 93.7671 162.859 94.5854C161.284 95.4408 159.568 96.4724 158.333 97.794C158.039 98.1085 157.763 98.4385 157.485 98.7692C157.233 99.0708 156.989 99.3611 156.733 99.6411C156.438 99.9626 156.158 100.3 155.88 100.636C155.708 100.919 155.674 100.989 155.639 101.062C155.587 101.171 155.526 101.293 155.457 101.424C155.362 101.603 155.251 101.8 155.135 101.978C154.941 102.303 154.837 102.393 154.747 102.433C154.598 102.499 154.457 102.532 154.32 102.514C154.191 102.498 154.07 102.436 153.95 102.335C153.353 101.83 153.177 101.002 153.195 100.123C153.223 98.7888 153.715 97.3118 154.168 96.4038C155.222 94.294 156.685 92.1008 158.443 90.5262C160.449 88.7288 162.644 87.3681 165.165 86.4304C166.732 85.8475 168.545 85.3125 170.252 85.3801C171.481 85.4287 172.654 85.7941 173.622 86.7065C174.217 87.2665 174.503 88.0632 174.503 88.8593C174.503 89.6712 174.206 90.488 173.618 91.0611ZM214.822 101.441C214.748 101.562 214.646 101.646 214.532 101.696C214.413 101.748 214.28 101.764 214.152 101.742C214.024 101.72 213.903 101.663 213.807 101.574C213.715 101.49 213.645 101.378 213.614 101.24C212.842 97.8478 211.342 95.3238 208.143 93.6962C206.568 92.8955 204.758 92.3868 203.045 91.9812C202.547 91.8633 202.021 91.7869 201.491 91.7095C199.83 91.467 198.158 91.1892 197.075 89.8464C196.423 89.0375 196.149 88.0031 196.304 87.057C196.45 86.1662 196.97 85.3495 197.916 84.86C200.271 83.6421 203.197 84.8372 205.575 85.8553C205.751 85.9308 205.924 86.005 206.094 86.0765C208.419 87.0585 210.54 88.3546 212.283 90.2083C213.667 91.6788 214.948 93.8528 215.465 96.0892C215.894 97.9498 215.793 99.8493 214.822 101.441Z" fill="#303030"/>
<path fill-rule="evenodd" clip-rule="evenodd" d="M225.353 117.725C221.107 122.114 214.018 123.374 208.368 121.02C193.862 114.956 200.962 96.0445 212.15 90.9658C213.547 90.6173 215.414 89.7905 217.116 89.6029C217.27 89.5273 217.605 89.746 218.011 89.5392C230.348 90.9171 233.157 110.075 225.353 117.725ZM178.563 118.848C173.8 125.167 164.946 127.117 157.712 124.179C143.42 118.549 148.489 101.779 158.267 95.204C178.923 87.4395 187.452 107.196 178.563 118.848ZM147.581 104.846C147.567 104.839 147.554 104.836 147.54 104.83C147.616 104.797 147.691 104.764 147.766 104.73C147.742 104.794 147.715 104.857 147.691 104.921C147.655 104.895 147.622 104.866 147.581 104.846ZM235.185 98.015C234.019 98.0174 232.334 98.2092 231.369 99.0185C228.989 90.9873 220.202 83.5545 212.561 88.9744C206.543 90.9104 202.078 95.2039 199.54 100.912C194.964 98.1892 187.769 99.3519 183.801 102.953C181.202 94.3624 174.806 91.3544 167.194 90.9104C158.885 89.5489 150.603 97.6213 148.019 104.097C145.871 103.853 142.66 103.169 140.639 104.495C127.521 101.053 104.585 99.156 101.918 101.068C100.018 101.798 98.9748 106.285 101.629 106.528C103.943 106.199 101.359 103.239 103.691 102.916C116.116 102.146 128.177 104.649 140.47 105.699C141.568 107.176 145.114 107.67 147.006 107.077C144.026 118.062 150.458 125.536 160.096 127.775C175.019 131.204 188.002 117.849 184.1 103.958C188.621 101.708 193.82 101.805 198.745 102.99C190.516 133.288 239.292 131.928 231.674 100.057C236.744 102.579 237.845 98.5241 235.185 98.015Z" fill="#303030"/>
</svg>
