<svg width="77" height="67" viewBox="0 0 77 67" fill="none" xmlns="http://www.w3.org/2000/svg">
<mask id="path-1-inside-1_11_610" fill="white">
<path fill-rule="evenodd" clip-rule="evenodd" d="M10.5564 0.00634766C5.03355 0.00634766 0.556396 4.4835 0.556396 10.0063V37.8664H76.609V10.0063C76.609 4.4835 72.1319 0.00634766 66.609 0.00634766H10.5564ZM76.609 51.1506H0.556396V56.4274C0.556396 61.9503 5.03354 66.4274 10.5564 66.4274H66.609C72.1319 66.4274 76.609 61.9503 76.609 56.4274V51.1506Z"/>
</mask>
<path d="M0.556396 37.8664H-1.4436V39.8664H0.556396V37.8664ZM76.609 37.8664V39.8664H78.609V37.8664H76.609ZM76.609 51.1506H78.609V49.1506H76.609V51.1506ZM0.556396 51.1506V49.1506H-1.4436V51.1506H0.556396ZM2.5564 10.0063C2.5564 5.58807 6.13812 2.00635 10.5564 2.00635V-1.99365C3.92898 -1.99365 -1.4436 3.37893 -1.4436 10.0063H2.5564ZM2.5564 37.8664V10.0063H-1.4436V37.8664H2.5564ZM0.556396 39.8664H76.609V35.8664H0.556396V39.8664ZM74.609 10.0063V37.8664H78.609V10.0063H74.609ZM66.609 2.00635C71.0273 2.00635 74.609 5.58807 74.609 10.0063H78.609C78.609 3.37893 73.2365 -1.99365 66.609 -1.99365V2.00635ZM10.5564 2.00635H66.609V-1.99365H10.5564V2.00635ZM76.609 49.1506H0.556396V53.1506H76.609V49.1506ZM2.5564 56.4274V51.1506H-1.4436V56.4274H2.5564ZM10.5564 64.4274C6.13811 64.4274 2.5564 60.8457 2.5564 56.4274H-1.4436C-1.4436 63.0549 3.92896 68.4274 10.5564 68.4274V64.4274ZM66.609 64.4274H10.5564V68.4274H66.609V64.4274ZM74.609 56.4274C74.609 60.8457 71.0273 64.4274 66.609 64.4274V68.4274C73.2365 68.4274 78.609 63.0549 78.609 56.4274H74.609ZM74.609 51.1506V56.4274H78.609V51.1506H74.609Z" fill="#15B7B9" mask="url(#path-1-inside-1_11_610)"/>
</svg>
