<svg width="77" height="80" viewBox="0 0 77 80" fill="none" xmlns="http://www.w3.org/2000/svg">
<path fill-rule="evenodd" clip-rule="evenodd" d="M30.9132 3.35659C34.8911 -1.11887 41.8839 -1.11886 45.8618 3.35659L75.5509 36.7589C78.3077 39.8605 76.1059 44.7633 71.9563 44.7633C69.3001 44.7633 67.1469 46.9165 67.1469 49.5727V69.9665C67.1469 75.4893 62.6698 79.9665 57.1469 79.9665H51.2906C46.8886 79.9665 43.3201 76.3979 43.3201 71.9959V68.8186C43.3201 66.1714 41.1741 64.0254 38.5268 64.0254C35.8796 64.0254 33.7336 66.1714 33.7336 68.8186V71.9959C33.7336 76.3979 30.1651 79.9665 25.7631 79.9665H19.6281C14.1053 79.9665 9.62811 75.4893 9.62811 69.9665V49.5727C9.62811 46.9165 7.47489 44.7633 4.81876 44.7633C0.669085 44.7633 -1.53269 39.8605 1.2241 36.7589L30.9132 3.35659Z" fill="#15B7B9"/>
</svg>
