<svg width="78" height="81" viewBox="0 0 78 81" fill="none" xmlns="http://www.w3.org/2000/svg">
<mask id="path-1-inside-1_11_602" fill="white">
<path fill-rule="evenodd" clip-rule="evenodd" d="M31.2986 4.2626C35.2765 -0.212859 42.2692 -0.212857 46.2472 4.2626L75.9363 37.6649C78.6931 40.7665 76.4913 45.6693 72.3416 45.6693V45.6693C69.6855 45.6693 67.5323 47.8225 67.5323 50.4787V70.8725C67.5323 76.3953 63.0551 80.8725 57.5323 80.8725H51.676C47.274 80.8725 43.7054 77.304 43.7054 72.902V69.7247C43.7054 67.0774 41.5594 64.9314 38.9122 64.9314V64.9314C36.265 64.9314 34.119 67.0774 34.119 69.7246V72.902C34.119 77.304 30.5504 80.8725 26.1484 80.8725H20.0135C14.4906 80.8725 10.0135 76.3953 10.0135 70.8725V50.4787C10.0135 47.8225 7.86026 45.6693 5.20413 45.6693V45.6693C1.05446 45.6693 -1.14732 40.7665 1.60948 37.6649L31.2986 4.2626Z"/>
</mask>
<path d="M1.60948 37.6649L0.11462 36.3362L1.60948 37.6649ZM31.2986 4.2626L29.8037 2.93391L31.2986 4.2626ZM75.9363 37.6649L74.4414 38.9936L75.9363 37.6649ZM77.4312 36.3362L47.742 2.93392L44.7523 5.59128L74.4414 38.9936L77.4312 36.3362ZM69.5323 70.8725V50.4787H65.5323V70.8725H69.5323ZM51.676 82.8725H57.5323V78.8725H51.676V82.8725ZM41.7054 69.7247V72.902H45.7054V69.7247H41.7054ZM36.119 72.902V69.7246H32.119V72.902H36.119ZM20.0135 82.8725H26.1484V78.8725H20.0135V82.8725ZM8.01349 50.4787V70.8725H12.0135V50.4787H8.01349ZM29.8037 2.93391L0.11462 36.3362L3.10434 38.9936L32.7934 5.59128L29.8037 2.93391ZM5.20413 43.6693C2.78013 43.6693 1.49397 40.8054 3.10434 38.9936L0.11462 36.3362C-3.78861 40.7276 -0.67121 47.6693 5.20413 47.6693V43.6693ZM12.0135 50.4787C12.0135 46.718 8.96483 43.6693 5.20413 43.6693V47.6693C6.7557 47.6693 8.01349 48.9271 8.01349 50.4787H12.0135ZM20.0135 78.8725C15.5952 78.8725 12.0135 75.2908 12.0135 70.8725H8.01349C8.01349 77.4999 13.3861 82.8725 20.0135 82.8725V78.8725ZM32.119 72.902C32.119 76.1994 29.4459 78.8725 26.1484 78.8725V82.8725C31.655 82.8725 36.119 78.4085 36.119 72.902H32.119ZM38.9122 62.9314C35.1604 62.9314 32.119 65.9728 32.119 69.7246H36.119C36.119 68.182 37.3695 66.9314 38.9122 66.9314V62.9314ZM45.7054 69.7247C45.7054 65.9729 42.664 62.9314 38.9122 62.9314V66.9314C40.4548 66.9314 41.7054 68.182 41.7054 69.7247H45.7054ZM51.676 78.8725C48.3785 78.8725 45.7054 76.1994 45.7054 72.902H41.7054C41.7054 78.4085 46.1694 82.8725 51.676 82.8725V78.8725ZM65.5323 70.8725C65.5323 75.2908 61.9506 78.8725 57.5323 78.8725V82.8725C64.1597 82.8725 69.5323 77.4999 69.5323 70.8725H65.5323ZM72.3416 43.6693C68.5809 43.6693 65.5323 46.718 65.5323 50.4787H69.5323C69.5323 48.9271 70.7901 47.6693 72.3416 47.6693V43.6693ZM47.742 2.93392C42.9685 -2.43663 34.5773 -2.43663 29.8037 2.93391L32.7934 5.59128C35.9758 2.01091 41.57 2.01092 44.7523 5.59128L47.742 2.93392ZM74.4414 38.9936C76.0518 40.8054 74.7656 43.6693 72.3416 43.6693V47.6693C78.217 47.6693 81.3344 40.7276 77.4312 36.3362L74.4414 38.9936Z" fill="#15B7B9" mask="url(#path-1-inside-1_11_602)"/>
</svg>
