<svg width="77" height="81" viewBox="0 0 77 81" fill="none" xmlns="http://www.w3.org/2000/svg">
<path d="M55.797 19.2283C55.797 28.984 48.197 36.8262 38.9023 36.8262C29.6076 36.8262 22.0076 28.984 22.0076 19.2283C22.0076 9.47254 29.6076 1.63037 38.9023 1.63037C48.197 1.63037 55.797 9.47254 55.797 19.2283Z" stroke="#15B7B9" stroke-width="2"/>
<path d="M1.5564 65.6334C1.5564 63.7427 2.15186 61.9 3.25828 60.3668L11.7948 48.5374C13.4867 46.193 16.2018 44.8041 19.093 44.8041L58.5658 44.8041C61.53 44.8041 64.304 46.2636 65.983 48.7064L74.0262 60.4094C75.0571 61.9095 75.609 63.6869 75.609 65.507V70.9999C75.609 75.9704 71.5796 79.9999 66.609 79.9999H10.5564C5.58582 79.9999 1.5564 75.9704 1.5564 70.9999L1.5564 65.6334Z" stroke="#15B7B9" stroke-width="2"/>
</svg>
